# xmcd CD database file
#
# Track frame offsets:
#	150
#	13330
#	32760
#	44014
#	56847
#	67090
#	77250
#	89487
#	100742
#	112990
#	124752
#	139852
#	150745
#	161647
#	172220
#	182884
#	197277
#	210072
#	220645
#	233925
#	245912
#	259902
#	270995
#	282532
#	296430
#
# Disc length: 4186 seconds
#
# Revision: 0
# Processed by: cddbd v1.5.2PL0 Copyright (c) Steve Scherf et al.
# Submitted via: CDex 1.70beta2
#
DISCID=72105819
DTITLE=Jones Classic Country - Jones Classic Country CCC-608
DYEAR=0000
DGENRE=Country
TTITLE0=Mickey Gilley/I Overlooked An Orchid
TTITLE1=Bobbie Gentry/Ode To Billy Joe
TTITLE2=Charlie Walker/Pick Me Up On Your Way Down
TTITLE3=Marty Robbins/Tonight Carmen
TTITLE4=Johnny Cash/Ballad Of A Teenage Queen
TTITLE5=Buck Owens/I've Got A Tiger By The Tail
TTITLE6=Johnny Horton/When It's Springtime In Alaska (It's Forty Below)
TTITLE7=Elvis Presley/Crying In The Chapel
TTITLE8=Tammy Wynette/'Til I Get It Right
TTITLE9=Sonny James/Little Band Of Gold
TTITLE10=Johnny Horton/Sink The Bismarck
TTITLE11=Johnny Cash/Daddy Sang Bass
TTITLE12=Faron Young/If You Ain't Lovin' (You Ain't Livin')
TTITLE13=Jimmy "C" Newman/A Fallen Star
TTITLE14=Elvis Presley/Hound Dog
TTITLE15=Lefty Frizzell/Always Late (With Your Kisses)
TTITLE16=Johnny Cash and June Cash/Jackson
TTITLE17=Everly Brothers/Bird Dog
TTITLE18=Merle Haggard/Swinging Doors
TTITLE19=Wilburn Brothers/Which One Is To Blame
TTITLE20=Tom T Hall/A Week In A Country Jail
TTITLE21=Porter Wagoner/Green, Green Grass Of Home
TTITLE22=Stonewall Jackson/Life To Go
TTITLE23=Conway Twitty/You've Never Been This Far Before
TTITLE24=Gene Watson/Paper Rosie
EXTD=YEAR: 0000
EXTT0=
EXTT1=
EXTT2=
EXTT3=
EXTT4=
EXTT5=
EXTT6=
EXTT7=
EXTT8=
EXTT9=
EXTT10=
EXTT11=
EXTT12=
EXTT13=
EXTT14=
EXTT15=
EXTT16=
EXTT17=
EXTT18=
EXTT19=
EXTT20=
EXTT21=
EXTT22=
EXTT23=
EXTT24=
PLAYORDER=
